<svg width="1447pt" height="179pt" viewBox="0.00 0.00 1446.61 179.00" xmlns="http://www.w3.org/2000/svg" xmlns:xlink="http://www.w3.org/1999/xlink" style="width: 100%;">
<g id="graph0" class="graph" transform="scale(1 1) rotate(0) translate(4 175)">
<title>G</title>
<polygon fill="#ffffff" stroke="transparent" points="-4,4 -4,-175 1442.6106,-175 1442.6106,4 -4,4"></polygon>
<g id="clust1" class="cluster">
<title>cluster_process</title>
<polygon fill="#adb5bd" stroke="#adb5bd" points="8,-20 8,-163 694.5066,-163 694.5066,-20 8,-20"></polygon>
<text text-anchor="middle" x="351.2533" y="-146.4" font-family="Times,serif" font-size="14.00" fill="#000000" data-eusoft-scrollable-element="1">Quantization Process</text>
</g>
<g id="clust2" class="cluster">
<title>cluster_storage</title>
<polygon fill="#adb5bd" stroke="#adb5bd" points="787.9996,-20 787.9996,-103 1430.6106,-103 1430.6106,-20 787.9996,-20"></polygon>
<text text-anchor="middle" x="1109.3051" y="-86.4" font-family="Times,serif" font-size="14.00" fill="#000000" data-eusoft-scrollable-element="1">Storage &amp; Loading</text>
</g>
<!-- OriginalModel -->
<g id="node1" class="node">
<title>OriginalModel</title>
<path fill="#ffffff" stroke="#495057" d="M99.5556,-69.6019C99.5556,-69.6019 28.1478,-69.6019 28.1478,-69.6019 22.1478,-69.6019 16.1478,-63.6019 16.1478,-57.6019 16.1478,-57.6019 16.1478,-40.3981 16.1478,-40.3981 16.1478,-34.3981 22.1478,-28.3981 28.1478,-28.3981 28.1478,-28.3981 99.5556,-28.3981 99.5556,-28.3981 105.5556,-28.3981 111.5556,-34.3981 111.5556,-40.3981 111.5556,-40.3981 111.5556,-57.6019 111.5556,-57.6019 111.5556,-63.6019 105.5556,-69.6019 99.5556,-69.6019"></path>
<text text-anchor="middle" x="63.8517" y="-53.2" font-family="sans-serif" font-size="14.00" fill="#495057" data-eusoft-scrollable-element="1">Original LLM</text>
<text text-anchor="middle" x="63.8517" y="-36.4" font-family="sans-serif" font-size="14.00" fill="#495057" data-eusoft-scrollable-element="1">(FP32/FP16)</text>
</g>
<!-- QuantAlgo -->
<g id="node2" class="node">
<title>QuantAlgo</title>
<path fill="#ffffff" stroke="#495057" d="M337.6341,-69.6019C337.6341,-69.6019 198.7265,-69.6019 198.7265,-69.6019 192.7265,-69.6019 186.7265,-63.6019 186.7265,-57.6019 186.7265,-57.6019 186.7265,-40.3981 186.7265,-40.3981 186.7265,-34.3981 192.7265,-28.3981 198.7265,-28.3981 198.7265,-28.3981 337.6341,-28.3981 337.6341,-28.3981 343.6341,-28.3981 349.6341,-34.3981 349.6341,-40.3981 349.6341,-40.3981 349.6341,-57.6019 349.6341,-57.6019 349.6341,-63.6019 343.6341,-69.6019 337.6341,-69.6019"></path>
<text text-anchor="middle" x="268.1803" y="-53.2" font-family="sans-serif" font-size="14.00" fill="#495057" data-eusoft-scrollable-element="1">Quantization Algorithm</text>
<text text-anchor="middle" x="268.1803" y="-36.4" font-family="sans-serif" font-size="14.00" fill="#495057" data-eusoft-scrollable-element="1">(e.g., PTQ, GPTQ, AWQ)</text>
</g>
<!-- OriginalModel&#45;&gt;QuantAlgo -->
<g id="edge1" class="edge">
<title>OriginalModel-&gt;QuantAlgo</title>
<path fill="none" stroke="#868e96" d="M111.7577,-49C131.0905,-49 154.0749,-49 176.3921,-49"></path>
<polygon fill="#868e96" stroke="#868e96" points="176.5835,-52.5001 186.5835,-49 176.5835,-45.5001 176.5835,-52.5001"></polygon>
</g>
<!-- QuantParams -->
<g id="node3" class="node">
<title>QuantParams</title>
<path fill="#ffffff" stroke="#495057" d="M674.5063,-129.6019C674.5063,-129.6019 537.5075,-129.6019 537.5075,-129.6019 531.5075,-129.6019 525.5075,-123.6019 525.5075,-117.6019 525.5075,-117.6019 525.5075,-100.3981 525.5075,-100.3981 525.5075,-94.3981 531.5075,-88.3981 537.5075,-88.3981 537.5075,-88.3981 674.5063,-88.3981 674.5063,-88.3981 680.5063,-88.3981 686.5063,-94.3981 686.5063,-100.3981 686.5063,-100.3981 686.5063,-117.6019 686.5063,-117.6019 686.5063,-123.6019 680.5063,-129.6019 674.5063,-129.6019"></path>
<text text-anchor="middle" x="606.0069" y="-113.2" font-family="sans-serif" font-size="14.00" fill="#495057" data-eusoft-scrollable-element="1">Quantization Parameters</text>
<text text-anchor="middle" x="606.0069" y="-96.4" font-family="sans-serif" font-size="14.00" fill="#495057" data-eusoft-scrollable-element="1">(Scales, Zero-Points, etc.)</text>
</g>
<!-- QuantAlgo&#45;&gt;QuantParams -->
<g id="edge2" class="edge">
<title>QuantAlgo-&gt;QuantParams</title>
<path fill="none" stroke="#868e96" d="M349.9587,-63.5243C399.8453,-72.3845 463.6955,-83.7247 515.1547,-92.8641"></path>
<polygon fill="#868e96" stroke="#868e96" points="514.8155,-96.3586 525.2735,-94.6613 516.0397,-89.4664 514.8155,-96.3586"></polygon>
</g>
<!-- QuantWeights -->
<g id="node4" class="node">
<title>QuantWeights</title>
<path fill="#ffffff" stroke="#495057" d="M655.6939,-69.6019C655.6939,-69.6019 556.3199,-69.6019 556.3199,-69.6019 550.3199,-69.6019 544.3199,-63.6019 544.3199,-57.6019 544.3199,-57.6019 544.3199,-40.3981 544.3199,-40.3981 544.3199,-34.3981 550.3199,-28.3981 556.3199,-28.3981 556.3199,-28.3981 655.6939,-28.3981 655.6939,-28.3981 661.6939,-28.3981 667.6939,-34.3981 667.6939,-40.3981 667.6939,-40.3981 667.6939,-57.6019 667.6939,-57.6019 667.6939,-63.6019 661.6939,-69.6019 655.6939,-69.6019"></path>
<text text-anchor="middle" x="606.0069" y="-53.2" font-family="sans-serif" font-size="14.00" fill="#495057" data-eusoft-scrollable-element="1">Quantized Weights</text>
<text text-anchor="middle" x="606.0069" y="-36.4" font-family="sans-serif" font-size="14.00" fill="#495057" data-eusoft-scrollable-element="1">(INT4, INT8, etc.)</text>
</g>
<!-- QuantAlgo&#45;&gt;QuantWeights -->
<g id="edge3" class="edge">
<title>QuantAlgo-&gt;QuantWeights</title>
<path fill="none" stroke="#868e96" d="M349.9587,-49C406.1866,-49 480.1536,-49 534.1235,-49"></path>
<polygon fill="#868e96" stroke="#868e96" points="534.2991,-52.5001 544.2991,-49 534.2991,-45.5001 534.2991,-52.5001"></polygon>
</g>
<!-- FileFormat -->
<g id="node5" class="node">
<title>FileFormat</title>
<path fill="#ffffff" stroke="#495057" d="M1029.6727,-69.6019C1029.6727,-69.6019 808.1085,-69.6019 808.1085,-69.6019 802.1085,-69.6019 796.1085,-63.6019 796.1085,-57.6019 796.1085,-57.6019 796.1085,-40.3981 796.1085,-40.3981 796.1085,-34.3981 802.1085,-28.3981 808.1085,-28.3981 808.1085,-28.3981 1029.6727,-28.3981 1029.6727,-28.3981 1035.6727,-28.3981 1041.6727,-34.3981 1041.6727,-40.3981 1041.6727,-40.3981 1041.6727,-57.6019 1041.6727,-57.6019 1041.6727,-63.6019 1035.6727,-69.6019 1029.6727,-69.6019"></path>
<text text-anchor="middle" x="918.8906" y="-53.2" font-family="sans-serif" font-size="14.00" fill="#495057" data-eusoft-scrollable-element="1">Specialized File Format</text>
<text text-anchor="middle" x="918.8906" y="-36.4" font-family="sans-serif" font-size="14.00" fill="#495057" data-eusoft-scrollable-element="1">(e.g., GGUF, GPTQ/AWQ Conventions)</text>
</g>
<!-- QuantParams&#45;&gt;FileFormat -->
<g id="edge4" class="edge">
<title>QuantParams-&gt;FileFormat</title>
<path fill="none" stroke="#868e96" d="M686.5822,-93.5485C721.4867,-86.8551 763.0395,-78.8867 801.2862,-71.5524"></path>
<polygon fill="#868e96" stroke="#868e96" points="802.2914,-74.9235 811.4532,-69.6027 800.973,-68.0487 802.2914,-74.9235"></polygon>
<text text-anchor="middle" x="741.2531" y="-93.2" font-family="sans-serif" font-size="14.00" fill="#495057" data-eusoft-scrollable-element="1">Bundled Into</text>
</g>
<!-- QuantWeights&#45;&gt;FileFormat -->
<g id="edge5" class="edge">
<title>QuantWeights-&gt;FileFormat</title>
<path fill="none" stroke="#868e96" d="M667.8227,-49C701.6331,-49 744.8891,-49 785.9373,-49"></path>
<polygon fill="#868e96" stroke="#868e96" points="786.0393,-52.5001 796.0393,-49 786.0393,-45.5001 786.0393,-52.5001"></polygon>
<text text-anchor="middle" x="741.2531" y="-53.2" font-family="sans-serif" font-size="14.00" fill="#495057" data-eusoft-scrollable-element="1">Bundled Into</text>
</g>
<!-- InferenceEngine -->
<g id="node6" class="node">
<title>InferenceEngine</title>
<path fill="#ffffff" stroke="#495057" d="M1410.6159,-69.6019C1410.6159,-69.6019 1189.5947,-69.6019 1189.5947,-69.6019 1183.5947,-69.6019 1177.5947,-63.6019 1177.5947,-57.6019 1177.5947,-57.6019 1177.5947,-40.3981 1177.5947,-40.3981 1177.5947,-34.3981 1183.5947,-28.3981 1189.5947,-28.3981 1189.5947,-28.3981 1410.6159,-28.3981 1410.6159,-28.3981 1416.6159,-28.3981 1422.6159,-34.3981 1422.6159,-40.3981 1422.6159,-40.3981 1422.6159,-57.6019 1422.6159,-57.6019 1422.6159,-63.6019 1416.6159,-69.6019 1410.6159,-69.6019"></path>
<text text-anchor="middle" x="1300.1053" y="-53.2" font-family="sans-serif" font-size="14.00" fill="#495057" data-eusoft-scrollable-element="1">Inference Engine / Library</text>
<text text-anchor="middle" x="1300.1053" y="-36.4" font-family="sans-serif" font-size="14.00" fill="#495057" data-eusoft-scrollable-element="1">(e.g., llama.cpp, Optimum, bitsandbytes)</text>
</g>
<!-- FileFormat&#45;&gt;InferenceEngine -->
<g id="edge6" class="edge">
<title>FileFormat-&gt;InferenceEngine</title>
<path fill="none" stroke="#868e96" d="M1041.8706,-49C1081.9745,-49 1126.6674,-49 1167.449,-49"></path>
<polygon fill="#868e96" stroke="#868e96" points="1167.4521,-52.5001 1177.4521,-49 1167.4521,-45.5001 1167.4521,-52.5001"></polygon>
<text text-anchor="middle" x="1109.6908" y="-53.2" font-family="sans-serif" font-size="14.00" fill="#495057" data-eusoft-scrollable-element="1">Loaded By</text>
</g>
<!-- InferenceEngine&#45;&gt;OriginalModel -->
<g id="edge7" class="edge">
<title>InferenceEngine-&gt;OriginalModel</title>
<path fill="none" stroke="#868e96" stroke-dasharray="5,2" d="M1248.8917,-28.3616C1211.0722,-14.9702 1157.992,0 1109.6908,0 149.2034,0 149.2034,0 149.2034,0 128.8761,0 109.0087,-10.5823 93.5639,-21.9113"></path>
<polygon fill="#868e96" stroke="#868e96" points="91.2029,-19.3139 85.4636,-28.2196 95.5039,-24.8367 91.2029,-19.3139"></polygon>
<text text-anchor="middle" x="456.5822" y="-4.2" font-family="sans-serif" font-size="14.00" fill="#495057" data-eusoft-scrollable-element="1">Executes Logic of</text>
</g>
</g>
</svg>